<?xml version="1.0" encoding="utf-8"?>
<!-- Generator: Adobe Illustrator 21.1.0, SVG Export Plug-In . SVG Version: 6.00 Build 0)  -->
<svg version="1.1" id="Layer_1" xmlns="http://www.w3.org/2000/svg" xmlns:xlink="http://www.w3.org/1999/xlink" x="0px" y="0px"
	 viewBox="0 0 595.3 283.5" style="enable-background:new 0 0 595.3 283.5;" xml:space="preserve">
<style type="text/css">
	.st0{fill:#b81bc2;}
</style>
<g>
<path class="st0" d="M288.9,117C288.9,117,289,117.1,288.9,117c0.1,0.1,0.2,0.1,0.4,0.1c0.4-0.1,1.1-0.1,1.4-0.1
	c0.9,0,1.9,0.2,2.8,0.3c0.2,0,0.5,0.1,0.7,0.1c0,0,0.1,0.1,0.1,0.1l-7.6,24c0,0,0,0.1-0.1,0.1c-3.8,0-7.1-1.4-9.3-6.2
	c-0.9-1.9-1.4-3.5-2-5.1c-1.1-3.1-2.1-5.9-4.7-8.9c-1-1.2-3.6-4.6-4.2-5.5c0,0,0,0,0-0.1c0.5-1.3,1.1-2.6,1.9-3.9l0.1-0.2l0.1-0.3
	c0,0,0-0.1,0-0.1c-1-0.4-2.4-1.5-2.8-2.4c-0.1-0.3-0.1-0.6,0-0.8c0.5-0.9,1.2-1.5,1.9-1.7c1.2-0.3,2.6,0.6,3.8,1.3
	c0.4,0.3,0.8,0.5,1.1,0.7c0,0,0.1,0,0.1,0l0.2-0.4c0,0,0-0.1,0-0.1c-0.3-0.2-0.7-0.4-1.1-0.7c-1.3-0.8-2.8-1.8-4.3-1.4
	c-0.9,0.2-1.6,0.9-2.3,2c-0.2,0.4-0.2,0.9-0.1,1.4c0.4,1,1.5,2,2.6,2.5c0,0,0.1,0.1,0,0.1c-2,3.7-3.2,7.7-4.4,11.6
	c-0.2,0.5-0.3,1.1-0.5,1.6c0,0-0.1,0.1-0.1,0c-2.3-1.1-4.8-1.7-7.5-1.6c-8.6,0.2-15.5,7.2-15.7,15.8c-0.2,9,7,16.3,15.9,16.5
	c8.8,0.2,16.1-6.8,16.4-15.6c0.2-6.3-3.2-11.8-8.4-14.7c0,0,0-0.1,0-0.1c0.2-0.6,0.4-1.2,0.5-1.8c0.7-2.2,1.3-4.5,2.2-6.8
	c0-0.1,0.1-0.1,0.1,0c0.9,1.3,3.1,4.1,3.9,5.1c2.5,3,3.4,5.5,4.6,8.7c0.6,1.5,1.2,3.2,2,5.2c2.3,5.2,5.9,6.6,10,6.6
	c1.5,0,3-0.2,4.6-0.5c0,0,0.1,0,0.1,0.1c1.4,7.5,8,13.2,15.9,13.2c8.9,0,16.2-7.3,16.1-16.3c-0.1-8.8-7.2-15.9-16-16
	c-9-0.1-16.3,7.2-16.3,16.1c0,0.7,0,1.4,0.1,2.1c0,0,0,0.1-0.1,0.1c-1.1,0.2-2.3,0.4-3.4,0.7c-0.2,0.1-0.4-0.1-0.4-0.4l7.6-23.9
	c0,0,0-0.1,0.1-0.1c0,0,0.1,0,0.1,0c0.1,0,0.2,0,0.3,0c1.9-0.4,1.9-0.4,2.7-0.4c0.4,0,0.8,0,1.7,0c0,0,0.1,0,0.1-0.1
	c0.1-0.1,0.1-0.4,0-0.5c0,0,0-0.1-0.1-0.1c-0.8,0-1.3,0-1.6,0c-0.8,0-0.9,0-2.8,0.4c-0.3,0.1-0.9-0.1-1.6-0.2
	c-0.9-0.2-1.9-0.4-2.9-0.4c-0.3,0-0.9,0.1-1.5,0.2c-0.1,0-0.2,0-0.2,0c0,0-0.1,0-0.1,0.1C288.9,116.7,288.9,116.9,288.9,117z
	 M291.9,141.6C291.9,141.6,291.9,141.5,291.9,141.6c0.8-0.2,1.5-0.4,2.2-0.5c1.3-0.3,2.7-0.5,4.1-0.7l8.7-1.3c0.1,0,0.2-0.2,0.2-0.3
	l0-0.1c0-0.2-0.2-0.3-0.3-0.2l-8.7,1.3c-1.4,0.2-2.8,0.5-4.1,0.7c-0.7,0.1-1.4,0.3-2.1,0.4c0,0-0.1,0-0.1-0.1
	c-0.1-0.7-0.1-1.3-0.1-2c0-8.6,7-15.6,15.6-15.5c8.4,0.1,15.3,6.9,15.4,15.4c0.1,8.6-6.9,15.6-15.5,15.6
	C299.6,154.3,293.3,148.8,291.9,141.6z M240.1,139.5c-0.1-8.6,6.9-15.6,15.5-15.6c2.5,0,4.8,0.6,6.9,1.6c0,0,0.1,0.1,0,0.1
	c-1.5,5-3.3,9.7-7.1,13.5c0,0,0,0.1,0,0.1l0.3,0.3c0,0,0.1,0,0.1,0c3.9-3.9,5.7-8.7,7.2-13.7c0,0,0.1-0.1,0.1,0
	c4.7,2.7,7.9,7.7,7.9,13.5c0,8.6-7,15.6-15.6,15.5C247,154.8,240.1,147.9,240.1,139.5z"/>
</g>
</svg>
