<?xml version="1.0" encoding="utf-8"?>
<!-- Generator: Adobe Illustrator 21.1.0, SVG Export Plug-In . SVG Version: 6.00 Build 0)  -->
<svg version="1.1" id="Layer_1" xmlns="http://www.w3.org/2000/svg" xmlns:xlink="http://www.w3.org/1999/xlink" x="0px" y="0px"
	 viewBox="0 0 595.3 283.5" style="enable-background:new 0 0 595.3 283.5;" xml:space="preserve">
<style type="text/css">
	.st0{fill:#4391ca;}
</style>
<g>
	<path class="st0" d="M114.4,127.3c-2.1-2.2-3.2-5-3-7.9l1.5-33.8c0.8-18.9,3.7-25.5,8.5-36.3c1.8-4,3.8-8.5,6.1-14.5
		c1.2-3.1,3.9-10.3,11.2-10.3H303c6.3,0,11.3,5.1,11.3,11.3v83.7c0,6.3-5.1,11.3-11.3,11.3H285l-0.1-2.8
		c-0.3-10.7-9.2-19.4-19.9-19.4c-10.7,0-19.6,8.7-19.9,19.4l-0.1,2.8h-59.3l-0.1-2.8c-0.3-10.7-9.2-19.4-19.9-19.4
		c-10.7,0-19.6,8.7-19.9,19.4l-0.1,2.8h-23.2C119.6,130.9,116.6,129.6,114.4,127.3z M165.9,103c12.8,0,23.7,9.7,25.3,22.2h48.5
		c1.7-12.5,12.5-22.2,25.3-22.2c12.8,0,23.7,9.7,25.3,22.2H303c3.1,0,5.7-2.5,5.7-5.7V35.8c0-3.1-2.5-5.7-5.7-5.7H138.6
		c-2.4,0-4,1.8-5.9,6.7c-2.3,6.2-4.4,10.8-6.2,14.8c-4.7,10.6-7.3,16.4-8,34.2l-1.5,33.8c-0.1,1.4,0.5,2.7,1.5,3.7
		c1.1,1.2,2.6,1.8,4.2,1.8h17.8C142.2,112.8,153,103,165.9,103z"/>
	<path class="st0" d="M149.3,128.5c0-9.2,7.5-16.7,16.7-16.7c9.2,0,16.7,7.5,16.7,16.7c0,9.2-7.5,16.7-16.7,16.7
		C156.8,145.2,149.3,137.7,149.3,128.5z M154.9,128.5c0,6.1,4.9,11,11,11c6.1,0,11-4.9,11-11c0-6.1-4.9-11-11-11
		C159.9,117.5,154.9,122.4,154.9,128.5z"/>
	<path class="st0" d="M247.9,128.6c0-9.5,7.7-17.2,17.2-17.2c9.5,0,17.2,7.7,17.2,17.2c0,9.5-7.7,17.2-17.2,17.2
		C255.6,145.8,247.9,138.1,247.9,128.6z M253.6,128.6c0,6.3,5.2,11.5,11.5,11.5c6.3,0,11.5-5.2,11.5-11.5c0-6.3-5.2-11.5-11.5-11.5
		C258.8,117.1,253.6,122.3,253.6,128.6z"/>
	<path class="st0" d="M128.6,74.5c1.2-5.5,3-9.5,5.2-14.5c1.4-3.3,3.1-7,4.9-11.9c1-2.6,3.3-8.8,9.6-8.8h12.4v38.6h-33L128.6,74.5z
		 M155.1,45h-6.7c-1.5,0-2.7,0.9-4.3,5.1c-1.9,5.1-3.6,8.8-5.1,12.2c-1.7,3.7-3,6.7-4,10h20.1V45z"/>
	<path class="st0" d="M167.2,39.3h58.5v38.6h-58.5V39.3z M220,45h-47.1v27.3H220V45z"/>
	<path class="st0" d="M232.3,39.3h56.6c5.4,0,9.8,4.4,9.8,9.8v28.8h-66.4V39.3z M293,49.1c0-2.3-1.9-4.1-4.1-4.1H238v27.3H293V49.1z
		"/>
</g>
</svg>
