<?xml version="1.0" encoding="utf-8"?>
<!-- Generator: Adobe Illustrator 21.1.0, SVG Export Plug-In . SVG Version: 6.00 Build 0)  -->
<svg version="1.1" id="Layer_1" xmlns="http://www.w3.org/2000/svg" xmlns:xlink="http://www.w3.org/1999/xlink" x="0px" y="0px"
	 viewBox="0 0 595.3 283.5" style="enable-background:new 0 0 595.3 283.5;" xml:space="preserve">
<style type="text/css">
	.st0{fill:#e34d4d;}
</style>
<g>
	<path class="st0" d="M335.3,89c0,10-23.2,21.2-56.5,21.2S222.2,99,222.2,89s23.2-21.2,56.5-21.2c6,0,11.8,0.4,17.5,1.1
		c1.7,0.2,3.2-1,3.5-2.7c0.2-1.4-0.7-2.7-2.1-2.9c-6.1-0.8-12.4-1.2-18.8-1.2c-34.9,0-62.2,11.8-62.2,26.8s27.3,26.8,62.2,26.8
		S341,104,341,89c0-1.1-0.2-2.2-0.5-3.4c-0.4-1.5-2.1-2.3-3.5-1.6c-1.3,0.7-2.1,2.2-1.8,3.6C335.3,88.1,335.3,88.5,335.3,89z"/>
	<path class="st0" d="M372.7,30.5c0.1-3.7-2.3-6.5-4.2-8.2c-1.9-1.8-4.8-4.1-8.5-3.9c-5.4,0.4-9.7,5.9-17.4,15.8
		c-3.9,5-8.7,11.2-15,18.4c-13.8-5.3-30.7-8.3-48-8.3c-21.2,0-41.2,4.2-56.3,12c-15.7,8-24.3,18.9-24.3,30.6c0,1.7,0.2,3.4,0.6,5.1
		c2.2,20.7,9,39.6,19.5,54.7c9.6,13.8,21.9,23.8,35.8,29.3c-0.1,0.1-0.1,0.1-0.2,0.2l0,0c-6.6,0.7-15.6-0.2-22.3-0.9
		c-9.4-0.9-11.9-1.2-12.7,1.8c-0.8,2.8,2.1,4.2,3.9,5.1l7.8,3.9l0.2,0.1c1.9,0.7,3.6,1.4,5.4,2c-2.5,2.3-4.6,4.6-6.5,7.3
		c-3.6,4.1-15.1,8.7-22.8,11.7c-9,3.6-11.4,4.5-10.8,7.6c0.5,2.6,3.3,2.8,5.1,2.8c0.1,0,0.2,0,0.4,0l8.1-0.1l0.3,0
		c13-1.3,28.7-4,45.6-14.5c4.9-3.1,9.2-4.3,13.3-5.5c2-0.6,4-1.2,6-2c1-0.1,2.2-0.3,3.5-0.6c1-0.2,2.2-0.4,2.7-0.5
		c6.2-0.5,10.8,0.3,15.3,1.1c3.5,0.6,7,1.3,10.9,1.3c5.3,0,11.5-1.1,20-4.8c3.7-1.6,6.5-4.7,7.9-8.7c1-3,1.1-6.4,0.4-9.5
		c2.4-0.6,4.7-2,6.4-3.4c4.4-3.7,6.5-8.9,5.7-13.8c-0.2-1.3,0.3-2.8,0.8-4.4c0.5-1.5,1-3,1.1-4.7l-5.7-0.2c0,0.8-0.4,1.9-0.8,3.1
		c-0.7,2.1-1.5,4.4-1,7.1c0.7,4-2.2,7.1-3.5,8.2c-2.4,2.2-4.8,2.8-5.3,2.6c0,0,0,0,0,0l-2.2-4.1c-0.8-1.5-2-2.8-3.5-3.7
		c17.3-16.3,28.4-40.4,31.5-68.3l0,0c0.4-1.7,0.6-3.4,0.6-5.1c0-9.6-5.9-18.8-16.8-26.2c5.6-5.1,10.5-9.3,14.6-12.7
		C367.4,40.2,372.5,35.9,372.7,30.5z M245.2,182c-1,0.6-2.1,1.2-3.2,1.9c-2.4-0.8-5-1.7-7.6-2.7C237.8,181.5,241.5,181.8,245.2,182z
		 M267.7,191.8c-4.2,1.3-9,2.7-14.6,6.2c-15.2,9.5-29.4,12.2-41.4,13.5c8.7-3.5,18.8-7.7,22.9-12.5l0.1-0.2c1.4-1.9,3.5-4.5,7.1-7.6
		c2.7-2.3,5.3-3.7,8-5.2c5.9-3.2,12-6.5,18.6-18c2.2-3.7,6.2-7,9.6-7.8c0.5-0.1,1-0.2,1.5-0.2c1,0,1.8,0.3,2.6,0.8l1.5,1
		c1,1,1.9,1.6,2.8,1.9l0.3,0.2c2.4,1.6,4.1,4.4,4.5,7.2c0.3,2.4-0.3,4.6-1.7,6.3C280.7,188,274.7,189.8,267.7,191.8z M330.4,181.3
		c-0.9,2.5-2.5,4.4-4.7,5.3c-13.4,5.7-20.1,4.5-27.7,3.1c-3.3-0.6-6.9-1.2-11.1-1.3c2.2-1.9,4.5-4.2,7-7.2c1.9-2.2,2.9-4.9,3.1-7.8
		c4.2-1.3,8.4-3.3,13.1-6.3c3.9-2.5,9.3-3.7,13-2.8c1.8,0.4,3,1.3,3.8,2.6l1,1.7c0.5,1.3,1.1,2.3,1.7,3.1l0.2,0.4
		C331.1,174.8,331.4,178.3,330.4,181.3z M322,158.3c-5.4-0.5-11.3,1.5-15.1,3.9c-3.9,2.5-7.4,4.3-10.8,5.4c-0.6-1.9-1.6-3.8-2.9-5.3
		c1.7-1.5,3-3.7,3.8-5.6c2.1-5,1.7-10.3-1.1-14.1c-0.7-1-0.9-2.4-1.1-4c-0.2-1.5-0.4-3-1.1-4.4l-5.2,2.4c0.3,0.7,0.5,1.7,0.6,2.9
		c0.3,2,0.6,4.4,2.2,6.5c2.1,2.9,1.2,6.5,0.7,8c-1,2.9-2.7,4.4-3.2,4.6l-3.5-2.4c-2.4-1.7-5.4-2.2-8.6-1.4
		c-5.7,1.3-10.7,6.2-13.2,10.4c-1.5,2.6-3,4.7-4.4,6.5c-24.8-8.7-44-33.4-51.4-65.1c3.9,4.1,9.2,7.9,15.6,11.1
		c15.1,7.7,35.1,12,56.3,12s41.2-4.2,56.3-12c6.5-3.3,11.7-7.1,15.7-11.2C346.6,127.7,336.4,145.8,322,158.3z M354.5,87
		c0,9.5-7.5,18.6-21.2,25.6c-14.3,7.3-33.4,11.3-53.7,11.3c-20.3,0-39.4-4-53.7-11.3c-13.7-7-21.2-16.1-21.2-25.6
		c0-9.5,7.5-18.6,21.2-25.6c14.3-7.3,33.4-11.3,53.7-11.3c15.8,0,31.2,2.5,44,7.1c-1.6,1.7-3.2,3.5-5,5.4
		c-7.6,7.9-16.1,16-24.1,23.6l-0.7,0.6c-0.7,0.6-0.8,1.7-0.2,2.5l0.6,0.7c1.1,1.4,2.3,2.7,3.6,3.9c2.1,2,4.5,3.8,7,5.3l0.7,0.4
		c0.8,0.5,1.7,0.3,2.3-0.4l0.6-0.7c6.4-7.6,14-16.5,21.5-24.4c3.2-3.4,6.3-6.5,9.3-9.3C349.1,71.2,354.5,79.1,354.5,87z M325.8,70.2
		c-6.6,7-13.2,14.6-19.1,21.5c-0.6,0.7-1.7,0.9-2.5,0.3c-0.9-0.7-1.7-1.4-2.6-2.2c0,0,0,0,0,0c-0.7-0.7-0.7-1.9,0-2.6
		c7.1-6.7,14.4-13.7,21-20.6c11.1-11.7,18.8-21.5,24.4-28.7c6.1-7.8,10.4-13.4,13.4-13.6c0.4,0,1.7-0.1,4.2,2.3
		c2.5,2.4,2.4,3.5,2.4,3.9c-0.1,2.8-5.4,7.3-12.7,13.4C347.1,49.8,337.3,58.1,325.8,70.2z"/>
</g>
</svg>
