<?xml version="1.0" encoding="utf-8"?>
<!-- Generator: Adobe Illustrator 21.1.0, SVG Export Plug-In . SVG Version: 6.00 Build 0)  -->
<svg version="1.1" id="Layer_1" xmlns="http://www.w3.org/2000/svg" xmlns:xlink="http://www.w3.org/1999/xlink" x="0px" y="0px"
	 viewBox="0 0 595.3 283.5" style="enable-background:new 0 0 595.3 283.5;" xml:space="preserve">
<style type="text/css">
	.st0{fill:#cbbc82;}
</style>
<g>
	<path class="st0" d="M310,83.6c-1.2-0.9-1.9-1-4-1.2c0,0,0,0,0,0c-1.8,0-3.2,0-4.7,0.8c-0.7,0.4-1.6,1-2.3,2.1
		c-2.5,2.7-4,4.1-5.8,8.1c-1.6,3.5-3.2,7.1-5.2,10.9c-2.7,5.2-5.4,10.5-6.9,16c0,0,0,0,0,0c-2.6,7.1-5,13.7-5,17
		c0,11.4,11.1,17.9,20,23c1.9,1.1,3.7,2.1,5.2,3.1c5.1,3.4,10.2,7.4,15.6,11.6c11.4,9,23.2,18.2,36.2,21.8c9.9,2.7,18.7,4,26.6,4
		c6,0,11.4-0.8,16.4-2.3c5.7-1.8,10-9.1,13.6-15.9c0,0,0,0,0-0.1c1.5-1.8,2.6-3.8,3.3-6c2.2-6.4,0-15.7-6.8-19.3
		c-7.1-3.8-14.5-9.7-21-14.9c-1.4-1.1-2.7-2.1-4-3.1c-0.1-0.1-0.2-0.3-0.2-0.5c0.2-1.2,0.1-2.6-0.5-4.3l0,0l-1-2.9
		c-0.5-1.3-1.3-2.3-2.3-3.2c0,0,0,0,0-0.1c-1.1-1.7-2.5-3.5-4.2-5.5c0,0-0.1-0.1-0.1-0.1l-0.8-2.4c-0.8-2.2-2.5-4.1-4.7-5
		c-0.4-0.2-0.7-0.3-1.1-0.4c-0.1,0-0.2-0.1-0.2-0.2c-0.8-1-1.6-1.9-2.4-2.7c0,0-0.1-0.1-0.1-0.1c-0.1-0.4-0.8-2.3-0.8-2.3
		c-0.4-1.1-0.8-2-1.5-2.7c-1.7-2-3.8-3-6-3.1c-0.1,0-0.2-0.1-0.3-0.1c-0.7-0.7-1.4-1.3-2.1-2.1c-2.2-2.2-12.2-7.3-15.7-4.8
		c-1.6,1.1-3.8,1.8-6,2.4c-0.8,0.2-1.6,0.5-2.3,0.7c-5.4,1.8-9.3-3.2-13.8-9.9c-1.5-2.2-2.9-4.3-4.4-5.7L310,83.6z M375.5,137.3
		c-0.8,0.1-1.5,0.2-2.1,0.4c-1.9,0.4-3.2,0.8-5.9-1.5c-0.4-0.3-0.7-0.6-1.1-0.9c-0.2-0.2-0.2-0.6,0.1-0.8l4.5-2.4
		c0.4-0.2,0.9-0.2,1.5,0c0.2,0.1,0.3,0.2,0.5,0.3c1.1,1.6,1.7,2.8,2,3.6l0.2,0.6l0,0C375.4,136.9,375.5,137.1,375.5,137.3z
		 M348.2,112.8c-0.2-0.2-0.2-0.7,0.2-0.8l5-2.1c0.2,0.2,0.5,0.5,0.7,0.7c1.7,1.6,3.3,3.1,5,4.8c0.2,0.2,0.2,0.7-0.2,0.8
		c-1.4,0.6-4.5,1.9-5.5,2.3c-0.2,0.1-0.4,0-0.6-0.2C351.3,116.4,349.7,114.4,348.2,112.8z M363.3,120.6
		C363.4,120.6,363.4,120.6,363.3,120.6c0.3,0.2,0.5,0.4,0.7,0.7c1.9,2.1,3.6,4,4.9,5.6c-0.2,0.1-0.3,0.1-0.5,0.2l-6.1,3.2
		c-0.2,0.1-0.5,0.1-0.6-0.1c-1.6-2-3.2-4.1-4.8-6.2c-0.2-0.3-0.1-0.6,0.2-0.7L363.3,120.6z M303.2,91.6l0.1-1.4
		c0-0.4,0.1-0.9,0.2-1.3c0-0.1,0.1-0.1,0.1-0.2c0.1-0.2,0.3-0.3,0.4-0.4c0.1-0.1,0.1-0.1,0.2-0.1c0.6-0.2,1.7-0.1,2.7,0.3
		c0.1,0,0.1,0.1,0.2,0.1c1,1,2.5,3.2,3.5,4.7c4.1,6.1,10.4,15.3,20.3,12.1c0.7-0.2,1.4-0.4,2.1-0.6c2.3-0.7,4.8-1.4,7.1-2.8
		c0.1-0.1,0.2-0.1,0.3-0.1c1.7,0.2,5.9,1.8,8,3.2c0.3,0.2,0.3,0.7-0.1,0.9c-1.5,0.6-4.9,2-5.7,2.3c-0.1,0.1-0.3,0-0.4,0
		c-7.5-3.4-16.4-1.6-23.7-0.1l-1.1,0.2c-7.3,1.5-8.8,0.3-11.6-4.8C302.9,98.4,303,97.1,303.2,91.6z M293,107
		c1.3-2.6,2.7-5.2,3.9-7.9c0.2-0.4,0.8-0.4,0.9,0.1c0.4,2,1.3,4.1,2.9,7.1c4.1,7.7,8.4,9.6,17.7,7.7l1.1-0.2c4.3-0.9,9-1.8,13.3-1.7
		c0.4,0,0.6,0.5,0.3,0.8c-2.3,2.3-3.2,5.7-2.1,8.9l0,0.1c0.5,1.4,2,2.1,3.4,1.6l0.3-0.1c1.4-0.5,2.1-2,1.6-3.4l0-0.1
		c-0.5-1.4,0.3-3,1.8-3.7l3.3-1.4c0.2,0,0.3,0,0.5,0.1c1.6,1.2,3.4,3.2,5.3,5.6c0.2,0.3,0.1,0.6-0.2,0.8l-1.2,0.5
		c-4.3,1.8-6.5,6.6-5,10.8l0,0.1c0.5,1.4,2,2.1,3.4,1.6l0.3-0.1c1.4-0.5,2.1-2,1.6-3.4l0-0.1c-0.5-1.4,0.3-3,1.9-3.7l2.7-1.1
		c0.2-0.1,0.4,0,0.6,0.2c1.7,2.3,3.5,4.8,5.4,7.1l-0.7,0.4c-4.3,2.2-6.3,6.6-4.8,10.7l0,0.1c0.5,1.4,2,2.1,3.4,1.6l0.3-0.1
		c1.4-0.5,2.1-2,1.6-3.4l0-0.1c-0.6-1.6,0.6-3,2.1-3.8l1.6-0.8c0.2-0.1,0.4-0.1,0.6,0.1c0.9,1,1.9,1.9,2.9,2.7
		c4.9,4.1,8.5,3.3,10.9,2.7c1.6-0.4,1.8-0.3,2.2,0c1.5,1.2,3.1,2.4,4.7,3.7c6.7,5.4,14.4,11.4,21.9,15.5c4,2.1,5.4,8.5,4.1,12.5
		c-1.4,4.1-5.2,7.8-9.4,9.1c-10.5,3.2-23.5,2.7-39.9-1.8c-11.9-3.2-23.3-12.1-34.2-20.8c-5.2-4.1-10.6-8.4-16-11.9
		c-1.6-1.1-3.5-2.2-5.5-3.3c-8-4.7-17.2-9.9-17.2-18.1C285.5,121.3,289.3,114,293,107z M394.4,193.3c-10.4,3.2-23.8,2.6-39.9-1.8
		c-11.9-3.2-23.3-12.1-34.2-20.8c-5.2-4.1-10.6-8.4-16-11.9c-1.6-1.1-3.5-2.2-5.5-3.3c-8-4.7-17.2-9.9-17.2-18.1
		c0-0.4,0.1-0.8,0.2-1.4c3.6,6.8,11.4,11.3,18,15.2c1.9,1.1,3.7,2.1,5.2,3.1c5.1,3.4,10.2,7.4,15.6,11.6c11.4,9,23.2,18.2,36.2,21.8
		c9.9,2.7,18.7,4,26.6,4c4.9,0,9.4-0.5,13.6-1.5c0.5-0.1,0.8,0.5,0.5,0.8C396.5,192.1,395.4,192.9,394.4,193.3z"/>
</g>
</svg>
