<?xml version="1.0" encoding="utf-8"?>
<!-- Generator: Adobe Illustrator 21.1.0, SVG Export Plug-In . SVG Version: 6.00 Build 0)  -->
<svg version="1.1" id="Layer_1" xmlns="http://www.w3.org/2000/svg" xmlns:xlink="http://www.w3.org/1999/xlink" x="0px" y="0px"
	 viewBox="0 0 595.3 283.5" style="enable-background:new 0 0 595.3 283.5;" xml:space="preserve">
<style type="text/css">
	.st0{fill:#b0ca4a;}
</style>
<g>
	<path class="st0" d="M314.4,214.6H253V103.8c0-10.9,8.9-19.8,19.8-19.8h0.4v-47h20.9v47h0.4c10.9,0,19.8,8.9,19.8,19.8V214.6z
		 M258.7,208.9h50.1V103.8c0-7.8-6.4-14.2-14.2-14.2h-6.1v-47h-9.6v47h-6.1c-7.8,0-14.2,6.4-14.2,14.2V208.9z"/>
	<path class="st0" d="M351.1,216H333c-3.1,0-5.6-2.5-5.6-5.6v-7.7h7.5v-35.5h-0.8c-7.8,0-14.1-6.3-14.1-14.1v-29h44.2v29
		c0,7.8-6.3,14.1-14.1,14.1h-0.8v35.5h7.5v7.7C356.6,213.5,354.1,216,351.1,216z M333.1,210.3H351v-2h-17.9V210.3z M340.6,202.5h2.9
		v-41h6.5c4.7,0,8.5-3.8,8.5-8.5v-23.3h-32.9V153c0,4.7,3.8,8.5,8.5,8.5h6.5V202.5z"/>
	<path class="st0" d="M234.3,215.7h-18.1c-3.1,0-5.6-2.5-5.6-5.6v-7.7h7.5v-35.5h-0.8c-7.8,0-14.1-6.3-14.1-14.1v-29h44.2v29
		c0,7.8-6.3,14.1-14.1,14.1h-0.8v35.5h7.5v7.7C239.9,213.2,237.4,215.7,234.3,215.7z M216.4,210h17.9v-2h-17.9V210z M223.8,202.2
		h2.9v-41h6.5c4.7,0,8.5-3.8,8.5-8.5v-23.3h-32.9v23.3c0,4.7,3.8,8.5,8.5,8.5h6.5V202.2z"/>
</g>
</svg>
